# xmcd
#
# Track frame offsets:
#	150
#	20896
#	32271
#	47728
#	63451
#	77108
#	93558
#	106499
#	121936
#	138075
#	150859
#	164535
#	181645
#	196677
#	208648
#	224487
#
# Disc length: 3248 seconds
#
# Revision: 0
# Processed by: cddbd v1.5.2PL0 Copyright (c) Steve Scherf et al.
# Submitted via: audiograbber 1.83.01
#
DISCID=d00cae10
DTITLE=M T M -  M T M 026
DYEAR=2007
DGENRE=Country
TTITLE0=Dear Jd  - Rick More
TTITLE1=Two Dollars In The Jukebox - Pete Schlegel
TTITLE2=Mama Prayed For Me  - Randy Archer
TTITLE3=Fingerprints  - Lisa Dudley
TTITLE4=Good Ol´ Country  - Dick Barnes
TTITLE5=The Game Of Life - P J Price
TTITLE6=Let Me Go  - J C Andersen
TTITLE7=High Heels  - Marc Christian
TTITLE8=The Dream  - Ray William Roldan
TTITLE9=In This Little Town  - Jeff Taylor
TTITLE10=Senses  - Jim Cristaldi
TTITLE11=She Need To Know  - John Foste
TTITLE12=Little Annie´s Christmas Wish  - Billy Yates
TTITLE13=On Christmas Dag  - Desert Heat
TTITLE14=Guess Who  - Kristynna Bailey
TTITLE15=December 25th  - Razzy Bailey
EXTD=
EXTT0=
EXTT1=
EXTT2=
EXTT3=
EXTT4=
EXTT5=
EXTT6=
EXTT7=
EXTT8=
EXTT9=
EXTT10=
EXTT11=
EXTT12=
EXTT13=
EXTT14=
EXTT15=
PLAYORDER=
